<mxfile host="www.draw.io" modified="2019-12-06T07:24:10.437Z" agent="Mozilla/5.0 (Windows NT 10.0; Win64; x64) AppleWebKit/537.36 (KHTML, like Gecko) Chrome/74.0.3729.131 Safari/537.36" etag="kpH3kBGLBa9lRTS3FiWn" version="12.3.7" type="github" pages="3">
  <diagram name="收银台流程图" id="e7e014a7-5840-1c2e-5031-d8a46d1fe8dd">
    <mxGraphModel dx="1025" dy="528" grid="1" gridSize="10" guides="1" tooltips="1" connect="1" arrows="1" fold="1" page="1" pageScale="1" pageWidth="1169" pageHeight="826" background="#ffffff" math="0" shadow="0">
      <root>
        <mxCell id="0"/>
        <mxCell id="1" parent="0"/>
        <mxCell id="WfDoKtgChr6BKfLCAzAr-41" value="支付中心" style="shape=umlLifeline;perimeter=lifelinePerimeter;whiteSpace=wrap;html=1;container=1;collapsible=0;recursiveResize=0;outlineConnect=0;rounded=1;shadow=0;comic=0;labelBackgroundColor=none;strokeWidth=1;fontFamily=Verdana;fontSize=12;align=center;fillColor=#fff2cc;strokeColor=#d6b656;" vertex="1" parent="1">
          <mxGeometry x="270" y="70" width="100" height="480" as="geometry"/>
        </mxCell>
        <mxCell id="WfDoKtgChr6BKfLCAzAr-42" value="" style="html=1;points=[];perimeter=orthogonalPerimeter;rounded=0;shadow=0;comic=0;labelBackgroundColor=none;strokeWidth=1;fontFamily=Verdana;fontSize=12;align=center;fillColor=#fff2cc;strokeColor=#d6b656;" vertex="1" parent="WfDoKtgChr6BKfLCAzAr-41">
          <mxGeometry x="45" y="100" width="10" height="40" as="geometry"/>
        </mxCell>
        <mxCell id="WfDoKtgChr6BKfLCAzAr-82" value="" style="html=1;points=[];perimeter=orthogonalPerimeter;fillColor=#fff2cc;strokeColor=#d6b656;" vertex="1" parent="WfDoKtgChr6BKfLCAzAr-41">
          <mxGeometry x="45" y="180" width="10" height="60" as="geometry"/>
        </mxCell>
        <mxCell id="WfDoKtgChr6BKfLCAzAr-89" value="" style="html=1;points=[];perimeter=orthogonalPerimeter;fillColor=#fff2cc;strokeColor=#d6b656;" vertex="1" parent="WfDoKtgChr6BKfLCAzAr-41">
          <mxGeometry x="45" y="263" width="10" height="80" as="geometry"/>
        </mxCell>
        <mxCell id="WfDoKtgChr6BKfLCAzAr-43" value="支付渠道" style="shape=umlLifeline;perimeter=lifelinePerimeter;whiteSpace=wrap;html=1;container=1;collapsible=0;recursiveResize=0;outlineConnect=0;rounded=1;shadow=0;comic=0;labelBackgroundColor=none;strokeWidth=1;fontFamily=Verdana;fontSize=12;align=center;fillColor=#e1d5e7;strokeColor=#9673a6;" vertex="1" parent="1">
          <mxGeometry x="530" y="70" width="100" height="490" as="geometry"/>
        </mxCell>
        <mxCell id="WfDoKtgChr6BKfLCAzAr-93" value="" style="html=1;points=[];perimeter=orthogonalPerimeter;fillColor=#e1d5e7;strokeColor=#9673a6;" vertex="1" parent="WfDoKtgChr6BKfLCAzAr-43">
          <mxGeometry x="45" y="360" width="10" height="80" as="geometry"/>
        </mxCell>
        <mxCell id="WfDoKtgChr6BKfLCAzAr-49" value="APP" style="shape=umlLifeline;perimeter=lifelinePerimeter;whiteSpace=wrap;html=1;container=1;collapsible=0;recursiveResize=0;outlineConnect=0;rounded=1;shadow=0;comic=0;labelBackgroundColor=none;strokeWidth=1;fontFamily=Verdana;fontSize=12;align=center;fillColor=#d5e8d4;strokeColor=#82b366;" vertex="1" parent="1">
          <mxGeometry x="20" y="70" width="100" height="580" as="geometry"/>
        </mxCell>
        <mxCell id="WfDoKtgChr6BKfLCAzAr-50" value="" style="html=1;points=[];perimeter=orthogonalPerimeter;rounded=0;shadow=0;comic=0;labelBackgroundColor=none;strokeWidth=1;fontFamily=Verdana;fontSize=12;align=center;fillColor=#d5e8d4;strokeColor=#82b366;" vertex="1" parent="WfDoKtgChr6BKfLCAzAr-49">
          <mxGeometry x="45" y="100" width="10" height="440" as="geometry"/>
        </mxCell>
        <mxCell id="WfDoKtgChr6BKfLCAzAr-64" value="引导路由" style="html=1;verticalAlign=bottom;endArrow=block;entryX=0;entryY=0;labelBackgroundColor=none;fontFamily=Verdana;fontSize=12;edgeStyle=elbowEdgeStyle;elbow=vertical;" edge="1" parent="1" source="WfDoKtgChr6BKfLCAzAr-50" target="WfDoKtgChr6BKfLCAzAr-42">
          <mxGeometry relative="1" as="geometry">
            <mxPoint x="140" y="180" as="sourcePoint"/>
          </mxGeometry>
        </mxCell>
        <mxCell id="WfDoKtgChr6BKfLCAzAr-79" style="rounded=0;orthogonalLoop=1;jettySize=auto;html=1;dashed=1;" edge="1" parent="1" source="WfDoKtgChr6BKfLCAzAr-71" target="WfDoKtgChr6BKfLCAzAr-42">
          <mxGeometry relative="1" as="geometry"/>
        </mxCell>
        <mxCell id="WfDoKtgChr6BKfLCAzAr-71" value="决定使用那些支付渠道" style="shape=note;whiteSpace=wrap;html=1;size=14;verticalAlign=top;align=left;spacingTop=-6;rounded=0;shadow=0;comic=0;labelBackgroundColor=none;strokeWidth=1;fontFamily=Verdana;fontSize=12;fillColor=#fad9d5;strokeColor=#ae4132;" vertex="1" parent="1">
          <mxGeometry x="360" y="130" width="160" height="40" as="geometry"/>
        </mxCell>
        <mxCell id="WfDoKtgChr6BKfLCAzAr-78" value="return" style="html=1;verticalAlign=bottom;endArrow=open;dashed=1;endSize=8;entryX=1;entryY=0.069;entryDx=0;entryDy=0;entryPerimeter=0;exitX=0.2;exitY=0.755;exitDx=0;exitDy=0;exitPerimeter=0;" edge="1" parent="1" source="WfDoKtgChr6BKfLCAzAr-42" target="WfDoKtgChr6BKfLCAzAr-50">
          <mxGeometry relative="1" as="geometry">
            <mxPoint x="200" y="200" as="sourcePoint"/>
            <mxPoint x="130" y="200" as="targetPoint"/>
          </mxGeometry>
        </mxCell>
        <mxCell id="WfDoKtgChr6BKfLCAzAr-83" value="订单查询" style="html=1;verticalAlign=bottom;startArrow=oval;endArrow=block;startSize=8;exitX=0.92;exitY=0.203;exitDx=0;exitDy=0;exitPerimeter=0;" edge="1" target="WfDoKtgChr6BKfLCAzAr-82" parent="1" source="WfDoKtgChr6BKfLCAzAr-50">
          <mxGeometry relative="1" as="geometry">
            <mxPoint x="145" y="250" as="sourcePoint"/>
          </mxGeometry>
        </mxCell>
        <mxCell id="WfDoKtgChr6BKfLCAzAr-86" value="return" style="html=1;verticalAlign=bottom;endArrow=open;dashed=1;endSize=8;entryX=0.92;entryY=0.29;entryDx=0;entryDy=0;entryPerimeter=0;" edge="1" parent="1" source="WfDoKtgChr6BKfLCAzAr-82" target="WfDoKtgChr6BKfLCAzAr-50">
          <mxGeometry relative="1" as="geometry">
            <mxPoint x="200" y="298" as="sourcePoint"/>
            <mxPoint x="100" y="298" as="targetPoint"/>
          </mxGeometry>
        </mxCell>
        <mxCell id="WfDoKtgChr6BKfLCAzAr-88" style="edgeStyle=none;rounded=0;orthogonalLoop=1;jettySize=auto;html=1;entryX=1;entryY=0.437;entryDx=0;entryDy=0;entryPerimeter=0;dashed=1;" edge="1" parent="1" source="WfDoKtgChr6BKfLCAzAr-87" target="WfDoKtgChr6BKfLCAzAr-82">
          <mxGeometry relative="1" as="geometry"/>
        </mxCell>
        <mxCell id="WfDoKtgChr6BKfLCAzAr-87" value="支付金额，商品名称，等信息" style="shape=note;whiteSpace=wrap;html=1;size=14;verticalAlign=top;align=left;spacingTop=-6;rounded=0;shadow=0;comic=0;labelBackgroundColor=none;strokeWidth=1;fontFamily=Verdana;fontSize=12;fillColor=#fad9d5;strokeColor=#ae4132;" vertex="1" parent="1">
          <mxGeometry x="360" y="230" width="180" height="50" as="geometry"/>
        </mxCell>
        <mxCell id="WfDoKtgChr6BKfLCAzAr-90" value="请求支付" style="html=1;verticalAlign=bottom;endArrow=block;entryX=0;entryY=0;dashed=1;exitX=1.5;exitY=0.37;exitDx=0;exitDy=0;exitPerimeter=0;" edge="1" target="WfDoKtgChr6BKfLCAzAr-89" parent="1" source="WfDoKtgChr6BKfLCAzAr-50">
          <mxGeometry relative="1" as="geometry">
            <mxPoint x="135" y="333" as="sourcePoint"/>
          </mxGeometry>
        </mxCell>
        <mxCell id="WfDoKtgChr6BKfLCAzAr-91" value="return" style="html=1;verticalAlign=bottom;endArrow=open;dashed=1;endSize=8;exitX=0;exitY=0.95;entryX=1.5;entryY=0.543;entryDx=0;entryDy=0;entryPerimeter=0;" edge="1" source="WfDoKtgChr6BKfLCAzAr-89" parent="1" target="WfDoKtgChr6BKfLCAzAr-50">
          <mxGeometry relative="1" as="geometry">
            <mxPoint x="135" y="409" as="targetPoint"/>
          </mxGeometry>
        </mxCell>
        <mxCell id="WfDoKtgChr6BKfLCAzAr-94" value="唤起支付" style="html=1;verticalAlign=bottom;endArrow=block;entryX=0;entryY=0;dashed=1;" edge="1" target="WfDoKtgChr6BKfLCAzAr-93" parent="1" source="WfDoKtgChr6BKfLCAzAr-50">
          <mxGeometry relative="1" as="geometry">
            <mxPoint x="295" y="430" as="sourcePoint"/>
          </mxGeometry>
        </mxCell>
        <mxCell id="WfDoKtgChr6BKfLCAzAr-95" value="支付回调" style="html=1;verticalAlign=bottom;endArrow=open;dashed=1;endSize=8;exitX=0;exitY=0.95;" edge="1" source="WfDoKtgChr6BKfLCAzAr-93" parent="1" target="WfDoKtgChr6BKfLCAzAr-41">
          <mxGeometry relative="1" as="geometry">
            <mxPoint x="405" y="506" as="targetPoint"/>
          </mxGeometry>
        </mxCell>
      </root>
    </mxGraphModel>
  </diagram>
  <diagram id="SKCn2fQWPehUIIffbpQr" name="接口说明">
    <mxGraphModel dx="1025" dy="528" grid="1" gridSize="10" guides="1" tooltips="1" connect="1" arrows="1" fold="1" page="1" pageScale="1" pageWidth="827" pageHeight="1169" math="0" shadow="0">
      <root>
        <mxCell id="FlVS8AwKjyi7dZYpjpf_-0"/>
        <mxCell id="FlVS8AwKjyi7dZYpjpf_-1" parent="FlVS8AwKjyi7dZYpjpf_-0"/>
        <mxCell id="wubw2G_kmhjYI-PTqYAA-0" value="&lt;table border=&quot;1&quot; width=&quot;100%&quot; cellpadding=&quot;4&quot; style=&quot;width: 100% ; height: 100% ; border-collapse: collapse&quot;&gt;&lt;tbody&gt;&lt;tr style=&quot;background-color: #a7c942 ; color: #ffffff ; border: 1px solid #98bf21&quot;&gt;&lt;th align=&quot;left&quot;&gt;接口&lt;/th&gt;&lt;th align=&quot;left&quot;&gt;方法&lt;/th&gt;&lt;th align=&quot;left&quot;&gt;路径&lt;/th&gt;&lt;td&gt;&lt;br&gt;&lt;/td&gt;&lt;/tr&gt;&lt;tr style=&quot;border: 1px solid #98bf21&quot;&gt;&lt;td&gt;引导路由&lt;/td&gt;&lt;td&gt;GET&lt;/td&gt;&lt;td&gt;/payplugin/check_out_stand/pay_methods?orderType=14&amp;amp;orderId=942445&lt;br&gt;&lt;/td&gt;&lt;td&gt;&lt;br&gt;&lt;/td&gt;&lt;/tr&gt;&lt;tr style=&quot;background-color: #eaf2d3 ; border: 1px solid #98bf21&quot;&gt;&lt;td&gt;订单查询&lt;/td&gt;&lt;td&gt;POST&lt;br&gt;&lt;/td&gt;&lt;td&gt;/payplugin/goods/toGetOrderDetail&lt;br&gt;&lt;/td&gt;&lt;td&gt;&lt;br&gt;&lt;/td&gt;&lt;/tr&gt;&lt;tr style=&quot;border: 1px solid #98bf21&quot;&gt;&lt;td&gt;请求支付&lt;/td&gt;&lt;td&gt;POST&lt;/td&gt;&lt;td&gt;/payplugin/goods/toPayByCarOrderId&lt;br&gt;&lt;/td&gt;&lt;td&gt;&lt;br&gt;&lt;/td&gt;&lt;/tr&gt;&lt;tr style=&quot;background-color: #eaf2d3 ; border: 1px solid #98bf21&quot;&gt;&lt;td&gt;swagger-ui&lt;/td&gt;&lt;td&gt;测试&lt;/td&gt;&lt;td&gt;&lt;a href=&quot;https://paytest.baojunev.com/payplugin/swagger-ui.html&quot;&gt;https://paytest.baojunev.com/payplugin/swagger-ui.html&lt;/a&gt;&lt;br&gt;&lt;/td&gt;&lt;td&gt;&lt;br&gt;&lt;/td&gt;&lt;/tr&gt;&lt;/tbody&gt;&lt;/table&gt;" style="text;html=1;strokeColor=#c0c0c0;fillColor=#ffffff;overflow=fill;rounded=0;" vertex="1" parent="FlVS8AwKjyi7dZYpjpf_-1">
          <mxGeometry x="10" y="120" width="660" height="240" as="geometry"/>
        </mxCell>
        <mxCell id="wubw2G_kmhjYI-PTqYAA-6" value="&lt;span style=&quot;white-space: nowrap&quot;&gt;引导路由-实例&lt;br&gt;&lt;/span&gt;&lt;pre style=&quot;margin-top: 5px ; margin-bottom: 0px ; padding: 10px ; border: 1px solid rgb(50 , 58 , 69) ; font-stretch: inherit ; font-size: 0.9em ; line-height: inherit ; font-family: &amp;#34;anonymous pro&amp;#34; , &amp;#34;menlo&amp;#34; , &amp;#34;consolas&amp;#34; , &amp;#34;bitstream vera sans mono&amp;#34; , &amp;#34;courier new&amp;#34; , monospace ; vertical-align: baseline ; background-color: rgb(50 , 58 , 69) ; max-height: 400px ; overflow-y: auto ; color: white&quot;&gt;https://paytest.baojunev.com/payplugin/check_out_stand/pay_methods?orderType=8&amp;amp;orderId=941574&lt;/pre&gt;&lt;div&gt;{&lt;/div&gt;&lt;div&gt;&amp;nbsp; &amp;nbsp; &quot;code&quot;: 200,&lt;/div&gt;&lt;div&gt;&amp;nbsp; &amp;nbsp; &quot;msg&quot;: &quot;OK&quot;,&lt;/div&gt;&lt;div&gt;&amp;nbsp; &amp;nbsp; &quot;data&quot;: {&lt;/div&gt;&lt;div&gt;&amp;nbsp; &amp;nbsp; &amp;nbsp; &amp;nbsp; &quot;emptyTips&quot;: &quot;请前往 宝骏新能源微信公众号 继续支付&quot;,&lt;/div&gt;&lt;div&gt;&amp;nbsp; &amp;nbsp; &amp;nbsp; &amp;nbsp; &quot;WX&quot;: {&lt;/div&gt;&lt;div&gt;&amp;nbsp; &amp;nbsp; &amp;nbsp; &amp;nbsp; &amp;nbsp; &amp;nbsp; &quot;name&quot;: &quot;微信支付&quot;,&lt;/div&gt;&lt;div&gt;&amp;nbsp; &amp;nbsp; &amp;nbsp; &amp;nbsp; &amp;nbsp; &amp;nbsp; &quot;interfaces&quot;: [&quot;APP&quot;, &quot;MWEB&quot;, &quot;JSAPI&quot;, &quot;MP&quot;],&lt;/div&gt;&lt;div&gt;&amp;nbsp; &amp;nbsp; &amp;nbsp; &amp;nbsp; &amp;nbsp; &amp;nbsp; &quot;tips&quot;: &quot;推荐安装微信5.0及以上版本使用&quot;&lt;/div&gt;&lt;div&gt;&amp;nbsp; &amp;nbsp; &amp;nbsp; &amp;nbsp; },&lt;/div&gt;&lt;div&gt;&amp;nbsp; &amp;nbsp; &amp;nbsp; &amp;nbsp; &quot;ALI&quot;: {&lt;/div&gt;&lt;div&gt;&amp;nbsp; &amp;nbsp; &amp;nbsp; &amp;nbsp; &amp;nbsp; &amp;nbsp; &quot;name&quot;: &quot;支付宝支付&quot;,&lt;/div&gt;&lt;div&gt;&amp;nbsp; &amp;nbsp; &amp;nbsp; &amp;nbsp; &amp;nbsp; &amp;nbsp; &quot;interfaces&quot;: [&quot;WAP&quot;, &quot;MOBILE&quot;, &quot;PC&quot;],&lt;/div&gt;&lt;div&gt;&amp;nbsp; &amp;nbsp; &amp;nbsp; &amp;nbsp; &amp;nbsp; &amp;nbsp; &quot;tips&quot;: &quot;&quot;&lt;/div&gt;&lt;div&gt;&amp;nbsp; &amp;nbsp; &amp;nbsp; &amp;nbsp; },&lt;/div&gt;&lt;div&gt;&amp;nbsp; &amp;nbsp; &amp;nbsp; &amp;nbsp; &quot;UNION&quot;: {&lt;/div&gt;&lt;div&gt;&amp;nbsp; &amp;nbsp; &amp;nbsp; &amp;nbsp; &amp;nbsp; &amp;nbsp; &quot;name&quot;: &quot;银联支付&quot;,&lt;/div&gt;&lt;div&gt;&amp;nbsp; &amp;nbsp; &amp;nbsp; &amp;nbsp; &amp;nbsp; &amp;nbsp; &quot;interfaces&quot;: [&quot;PC&quot;, &quot;WAP&quot;, &quot;MOBILE&quot;],&lt;/div&gt;&lt;div&gt;&amp;nbsp; &amp;nbsp; &amp;nbsp; &amp;nbsp; &amp;nbsp; &amp;nbsp; &quot;tips&quot;: &quot;使用信用卡储蓄卡付款&quot;&lt;/div&gt;&lt;div&gt;&amp;nbsp; &amp;nbsp; &amp;nbsp; &amp;nbsp; }&lt;/div&gt;&lt;div&gt;&amp;nbsp; &amp;nbsp; }&lt;/div&gt;&lt;div&gt;}&lt;/div&gt;&lt;div&gt;&lt;br&gt;&lt;/div&gt;&lt;div&gt;#参数说明&lt;/div&gt;&lt;div&gt;&lt;br&gt;&lt;/div&gt;&lt;div&gt;emptyTips:如果设备不支付任何支付接口时提示文字&lt;br&gt;&lt;/div&gt;&lt;div&gt;&lt;br&gt;&lt;/div&gt;&lt;div&gt;interfaces:订单支持的支付接口&lt;br&gt;&lt;/div&gt;&lt;div&gt;&lt;/div&gt;&amp;nbsp; &amp;nbsp; &amp;nbsp; &amp;nbsp; &amp;nbsp; &amp;nbsp; &amp;nbsp; &amp;nbsp; WX --&amp;nbsp; &amp;nbsp;APP： APP支付 MWEB：H5支付 JSAPI：小程序支付&amp;nbsp; MP：公众号支付&lt;br&gt;&amp;nbsp; &amp;nbsp; &amp;nbsp; &amp;nbsp; &amp;nbsp; &amp;nbsp; &amp;nbsp; &amp;nbsp; ALI --&amp;nbsp; &amp;nbsp;WAP：H5支付&amp;nbsp; &amp;nbsp;MOBILE：APP支付&amp;nbsp; &amp;nbsp;PC：PC端支付&lt;br&gt;&amp;nbsp; &amp;nbsp; &amp;nbsp; &amp;nbsp; &amp;nbsp; &amp;nbsp; &amp;nbsp; &amp;nbsp; UNION -- WAP：H5支付&amp;nbsp; &amp;nbsp;MOBILE：APP支付&amp;nbsp; &amp;nbsp;PC：PC端支付&lt;br&gt;tips:支付渠道说明&lt;br&gt;&lt;div&gt;&amp;nbsp; &amp;nbsp; &amp;nbsp; &amp;nbsp;&amp;nbsp;&lt;/div&gt;&lt;div&gt;&lt;br&gt;&lt;/div&gt;" style="shape=note;whiteSpace=wrap;html=1;size=14;verticalAlign=top;align=left;spacingTop=-6;fillColor=#d5e8d4;strokeColor=#82b366;" vertex="1" parent="FlVS8AwKjyi7dZYpjpf_-1">
          <mxGeometry x="10" y="390" width="660" height="540" as="geometry"/>
        </mxCell>
        <mxCell id="wubw2G_kmhjYI-PTqYAA-7" value="&lt;span style=&quot;white-space: nowrap ; background-color: rgb(234 , 242 , 211)&quot;&gt;订单查询&lt;/span&gt;&lt;span&gt;-实例&lt;br&gt;&lt;/span&gt;&lt;pre style=&quot;margin-top: 5px ; margin-bottom: 0px ; padding: 10px ; border: 1px solid rgb(50 , 58 , 69) ; font-stretch: inherit ; font-size: 0.9em ; line-height: inherit ; font-family: &amp;#34;anonymous pro&amp;#34; , &amp;#34;menlo&amp;#34; , &amp;#34;consolas&amp;#34; , &amp;#34;bitstream vera sans mono&amp;#34; , &amp;#34;courier new&amp;#34; , monospace ; vertical-align: baseline ; background-color: rgb(50 , 58 , 69) ; max-height: 400px ; overflow-y: auto ; color: white&quot;&gt;https://paytest.baojunev.com/payplugin/goods/toGetOrderDetail?orderType=8&amp;amp;orderId=941574&lt;/pre&gt;&lt;div&gt;{&lt;/div&gt;&lt;div&gt;&amp;nbsp; &quot;code&quot;: 200,&lt;/div&gt;&lt;div&gt;&amp;nbsp; &quot;msg&quot;: &quot;OK&quot;,&lt;/div&gt;&lt;div&gt;&amp;nbsp; &quot;data&quot;: {&lt;/div&gt;&lt;div&gt;&amp;nbsp; &amp;nbsp; &quot;type&quot;: null,&lt;/div&gt;&lt;div&gt;&amp;nbsp; &amp;nbsp; &quot;status&quot;: &quot;4&quot;,&lt;/div&gt;&lt;div&gt;&amp;nbsp; &amp;nbsp; &quot;amount&quot;: &quot;1.00&quot;,&lt;/div&gt;&lt;div&gt;&amp;nbsp; &amp;nbsp; &quot;orderType&quot;: &quot;8&quot;,&lt;/div&gt;&lt;div&gt;&amp;nbsp; &amp;nbsp; &quot;url&quot;: null&lt;/div&gt;&lt;div&gt;&amp;nbsp; }&lt;/div&gt;&lt;div&gt;}&lt;/div&gt;&lt;div&gt;&lt;br&gt;&lt;/div&gt;&lt;div&gt;#参数说明&lt;/div&gt;&lt;div&gt;&lt;br&gt;&lt;/div&gt;&lt;div&gt;status:弃用&lt;/div&gt;&lt;div&gt;&lt;span&gt;amount:待支付金额&lt;/span&gt;&lt;br&gt;&lt;/div&gt;&lt;div&gt;orderType:orderType&lt;/div&gt;&lt;div&gt;&amp;nbsp; &amp;nbsp; &amp;nbsp; &amp;nbsp;&amp;nbsp;&lt;/div&gt;&lt;div&gt;&lt;br&gt;&lt;/div&gt;" style="shape=note;whiteSpace=wrap;html=1;size=14;verticalAlign=top;align=left;spacingTop=-6;fillColor=#d5e8d4;strokeColor=#82b366;" vertex="1" parent="FlVS8AwKjyi7dZYpjpf_-1">
          <mxGeometry x="10" y="970" width="660" height="310" as="geometry"/>
        </mxCell>
        <mxCell id="wubw2G_kmhjYI-PTqYAA-8" value="&lt;span style=&quot;white-space: nowrap ; background-color: rgb(234 , 242 , 211)&quot;&gt;请求支付&lt;/span&gt;-实例&lt;br&gt;&lt;span style=&quot;color: rgb(80 , 80 , 80) ; font-family: &amp;#34;opensans&amp;#34; , &amp;#34;helvetica&amp;#34; , &amp;#34;arial&amp;#34; , sans-serif ; white-space: pre-wrap ; background-color: rgb(255 , 255 , 255)&quot;&gt;https://paytest.baojunev.com/payplugin/goods/toPayByCarOrderIdFromWeb?amount=0&amp;amp;channel=WX&amp;amp;machId=2018032602448523&amp;amp;orderId=942445&amp;amp;orderType=14&lt;br&gt;&lt;/span&gt;&lt;div&gt;&amp;nbsp; &amp;nbsp; &amp;nbsp; &amp;nbsp;&amp;nbsp;&lt;/div&gt;&lt;div&gt;&lt;br&gt;&lt;/div&gt;" style="shape=note;whiteSpace=wrap;html=1;size=14;verticalAlign=top;align=left;spacingTop=-6;fillColor=#d5e8d4;strokeColor=#82b366;" vertex="1" parent="FlVS8AwKjyi7dZYpjpf_-1">
          <mxGeometry x="20" y="1300" width="670" height="70" as="geometry"/>
        </mxCell>
        <mxCell id="wubw2G_kmhjYI-PTqYAA-9" value="&lt;font style=&quot;font-size: 19px&quot;&gt;参考文档：https://shimo.im/docs/RTqQ6kCppYqp8Vgq/ 《新能源 订单支付 接入文档》&lt;/font&gt;" style="shape=note;whiteSpace=wrap;html=1;size=14;verticalAlign=top;align=left;spacingTop=-6;fillColor=#fad7ac;strokeColor=#b46504;" vertex="1" parent="FlVS8AwKjyi7dZYpjpf_-1">
          <mxGeometry x="20" y="1410" width="760" height="50" as="geometry"/>
        </mxCell>
      </root>
    </mxGraphModel>
  </diagram>
  <diagram id="3MqrZGOUUdysxM16c1eH" name="UI">
    <mxGraphModel dx="1025" dy="528" grid="1" gridSize="10" guides="1" tooltips="1" connect="1" arrows="1" fold="1" page="1" pageScale="1" pageWidth="827" pageHeight="1169" math="0" shadow="0">
      <root>
        <mxCell id="_AlnVbgyhVqX15xRj5RF-0"/>
        <mxCell id="_AlnVbgyhVqX15xRj5RF-1" parent="_AlnVbgyhVqX15xRj5RF-0"/>
      </root>
    </mxGraphModel>
  </diagram>
</mxfile>
